<svg id="SvgjsSvg1006" width="1219.75" height="430.59375" xmlns="http://www.w3.org/2000/svg" version="1.1" xmlns:xlink="http://www.w3.org/1999/xlink" xmlns:svgjs="http://svgjs.com/svgjs"><defs id="SvgjsDefs1007"><marker id="SvgjsMarker1029" markerWidth="16" markerHeight="12" refX="16" refY="6" viewBox="0 0 16 12" orient="auto" markerUnits="userSpaceOnUse"><path id="SvgjsPath1030" d="M0,2 L14,6 L0,11 L0,2" fill="#323232" stroke="#323232" stroke-width="2"></path></marker><marker id="SvgjsMarker1033" markerWidth="16" markerHeight="12" refX="16" refY="6" viewBox="0 0 16 12" orient="auto" markerUnits="userSpaceOnUse"><path id="SvgjsPath1034" d="M0,2 L14,6 L0,11 L0,2" fill="#323232" stroke="#323232" stroke-width="2"></path></marker><marker id="SvgjsMarker1059" markerWidth="16" markerHeight="12" refX="16" refY="6" viewBox="0 0 16 12" orient="auto" markerUnits="userSpaceOnUse"><path id="SvgjsPath1060" d="M0,2 L14,6 L0,11 L0,2" fill="#323232" stroke="#323232" stroke-width="2"></path></marker><marker id="SvgjsMarker1073" markerWidth="16" markerHeight="12" refX="16" refY="6" viewBox="0 0 16 12" orient="auto" markerUnits="userSpaceOnUse"><path id="SvgjsPath1074" d="M0,2 L14,6 L0,11 L0,2" fill="#323232" stroke="#323232" stroke-width="2"></path></marker><marker id="SvgjsMarker1077" markerWidth="16" markerHeight="12" refX="16" refY="6" viewBox="0 0 16 12" orient="auto" markerUnits="userSpaceOnUse"><path id="SvgjsPath1078" d="M0,2 L14,6 L0,11 L0,2" fill="#323232" stroke="#323232" stroke-width="2"></path></marker><marker id="SvgjsMarker1101" markerWidth="16" markerHeight="12" refX="16" refY="6" viewBox="0 0 16 12" orient="auto" markerUnits="userSpaceOnUse"><path id="SvgjsPath1102" d="M0,2 L14,6 L0,11 L0,2" fill="#323232" stroke="#323232" stroke-width="2"></path></marker><marker id="SvgjsMarker1111" markerWidth="16" markerHeight="12" refX="16" refY="6" viewBox="0 0 16 12" orient="auto" markerUnits="userSpaceOnUse"><path id="SvgjsPath1112" d="M0,2 L14,6 L0,11 L0,2" fill="#323232" stroke="#323232" stroke-width="2"></path></marker><marker id="SvgjsMarker1115" markerWidth="16" markerHeight="12" refX="16" refY="6" viewBox="0 0 16 12" orient="auto" markerUnits="userSpaceOnUse"><path id="SvgjsPath1116" d="M0,2 L14,6 L0,11 L0,2" fill="#323232" stroke="#323232" stroke-width="2"></path></marker><marker id="SvgjsMarker1137" markerWidth="16" markerHeight="12" refX="16" refY="6" viewBox="0 0 16 12" orient="auto" markerUnits="userSpaceOnUse"><path id="SvgjsPath1138" d="M0,2 L14,6 L0,11 L0,2" fill="#323232" stroke="#323232" stroke-width="2"></path></marker><marker id="SvgjsMarker1161" markerWidth="16" markerHeight="12" refX="16" refY="6" viewBox="0 0 16 12" orient="auto" markerUnits="userSpaceOnUse"><path id="SvgjsPath1162" d="M0,2 L14,6 L0,11 L0,2" fill="#323232" stroke="#323232" stroke-width="2"></path></marker><marker id="SvgjsMarker1201" markerWidth="16" markerHeight="12" refX="16" refY="6" viewBox="0 0 16 12" orient="auto" markerUnits="userSpaceOnUse"><path id="SvgjsPath1202" d="M0,2 L14,6 L0,11 L0,2" fill="#323232" stroke="#323232" stroke-width="2"></path></marker><marker id="SvgjsMarker1209" markerWidth="16" markerHeight="12" refX="16" refY="6" viewBox="0 0 16 12" orient="auto" markerUnits="userSpaceOnUse"><path id="SvgjsPath1210" d="M0,2 L14,6 L0,11 L0,2" fill="#323232" stroke="#323232" stroke-width="2"></path></marker><marker id="SvgjsMarker1217" markerWidth="16" markerHeight="12" refX="16" refY="6" viewBox="0 0 16 12" orient="auto" markerUnits="userSpaceOnUse"><path id="SvgjsPath1218" d="M0,2 L14,6 L0,11 L0,2" fill="#323232" stroke="#323232" stroke-width="2"></path></marker><marker id="SvgjsMarker1221" markerWidth="16" markerHeight="12" refX="16" refY="6" viewBox="0 0 16 12" orient="auto" markerUnits="userSpaceOnUse"><path id="SvgjsPath1222" d="M0,2 L14,6 L0,11 L0,2" fill="#323232" stroke="#323232" stroke-width="2"></path></marker><marker id="SvgjsMarker1229" markerWidth="16" markerHeight="12" refX="16" refY="6" viewBox="0 0 16 12" orient="auto" markerUnits="userSpaceOnUse"><path id="SvgjsPath1230" d="M0,2 L14,6 L0,11 L0,2" fill="#323232" stroke="#323232" stroke-width="2"></path></marker><marker id="SvgjsMarker1237" markerWidth="16" markerHeight="12" refX="16" refY="6" viewBox="0 0 16 12" orient="auto" markerUnits="userSpaceOnUse"><path id="SvgjsPath1238" d="M0,2 L14,6 L0,11 L0,2" fill="#323232" stroke="#323232" stroke-width="2"></path></marker><marker id="SvgjsMarker1241" markerWidth="16" markerHeight="12" refX="16" refY="6" viewBox="0 0 16 12" orient="auto" markerUnits="userSpaceOnUse"><path id="SvgjsPath1242" d="M0,2 L14,6 L0,11 L0,2" fill="#323232" stroke="#323232" stroke-width="2"></path></marker><marker id="SvgjsMarker1245" markerWidth="16" markerHeight="12" refX="16" refY="6" viewBox="0 0 16 12" orient="auto" markerUnits="userSpaceOnUse"><path id="SvgjsPath1246" d="M0,2 L14,6 L0,11 L0,2" fill="#323232" stroke="#323232" stroke-width="2"></path></marker><marker id="SvgjsMarker1263" markerWidth="16" markerHeight="12" refX="16" refY="6" viewBox="0 0 16 12" orient="auto" markerUnits="userSpaceOnUse"><path id="SvgjsPath1264" d="M0,2 L14,6 L0,11 L0,2" fill="#323232" stroke="#323232" stroke-width="2"></path></marker><marker id="SvgjsMarker1289" markerWidth="16" markerHeight="12" refX="16" refY="6" viewBox="0 0 16 12" orient="auto" markerUnits="userSpaceOnUse"><path id="SvgjsPath1290" d="M0,2 L14,6 L0,11 L0,2" fill="#323232" stroke="#323232" stroke-width="2"></path></marker><marker id="SvgjsMarker1293" markerWidth="16" markerHeight="12" refX="16" refY="6" viewBox="0 0 16 12" orient="auto" markerUnits="userSpaceOnUse"><path id="SvgjsPath1294" d="M0,2 L14,6 L0,11 L0,2" fill="#323232" stroke="#323232" stroke-width="2"></path></marker><marker id="SvgjsMarker1301" markerWidth="16" markerHeight="12" refX="16" refY="6" viewBox="0 0 16 12" orient="auto" markerUnits="userSpaceOnUse"><path id="SvgjsPath1302" d="M0,2 L14,6 L0,11 L0,2" fill="#323232" stroke="#323232" stroke-width="2"></path></marker><marker id="SvgjsMarker1305" markerWidth="16" markerHeight="12" refX="16" refY="6" viewBox="0 0 16 12" orient="auto" markerUnits="userSpaceOnUse"><path id="SvgjsPath1306" d="M0,2 L14,6 L0,11 L0,2" fill="#323232" stroke="#323232" stroke-width="2"></path></marker><marker id="SvgjsMarker1309" markerWidth="16" markerHeight="12" refX="16" refY="6" viewBox="0 0 16 12" orient="auto" markerUnits="userSpaceOnUse"><path id="SvgjsPath1310" d="M0,2 L14,6 L0,11 L0,2" fill="#323232" stroke="#323232" stroke-width="2"></path></marker><marker id="SvgjsMarker1323" markerWidth="16" markerHeight="12" refX="16" refY="6" viewBox="0 0 16 12" orient="auto" markerUnits="userSpaceOnUse"><path id="SvgjsPath1324" d="M0,2 L14,6 L0,11 L0,2" fill="#323232" stroke="#323232" stroke-width="2"></path></marker></defs><rect id="SvgjsRect1008" width="1219.75" height="430.59375" fill="#ffffff"></rect><g id="SvgjsG1009" transform="translate(30,31.5)"><path id="SvgjsPath1010" d="M 9.333333333333334 0L 63.666666666666664 0C 76.11111111111111 0 76.11111111111111 28 63.666666666666664 28L 9.333333333333334 28C -3.111111111111111 28 -3.111111111111111 0 9.333333333333334 0Z" stroke="#323232" stroke-width="2" fill-opacity="1" fill="#b3ff66"></path><g id="SvgjsG1011"><text id="SvgjsText1012" font-family="Arial" text-anchor="middle" font-size="13px" width="27" fill="#323232" font-weight="400" align="middle" anchor="middle" family="Arial" size="13px" weight="400" font-style="" y="4.05" transform="rotate(0)"><tspan id="SvgjsTspan1013" dy="16" x="36.5"><tspan id="SvgjsTspan1014" style="text-decoration:;">Start</tspan></tspan></text></g></g><g id="SvgjsG1015" transform="translate(661.5,31.5)"><path id="SvgjsPath1016" d="M 9.333333333333334 0L 58.666666666666664 0C 71.11111111111111 0 71.11111111111111 28 58.666666666666664 28L 9.333333333333334 28C -3.111111111111111 28 -3.111111111111111 0 9.333333333333334 0Z" stroke="#323232" stroke-width="2" fill-opacity="1" fill="#33ff33"></path><g id="SvgjsG1017"><text id="SvgjsText1018" font-family="Arial" text-anchor="middle" font-size="13px" width="23" fill="#323232" font-weight="400" align="middle" anchor="middle" family="Arial" size="13px" weight="400" font-style="" y="4.05" transform="rotate(0)"><tspan id="SvgjsTspan1019" dy="16" x="34"><tspan id="SvgjsTspan1020" style="text-decoration:;">End</tspan></tspan></text></g></g><g id="SvgjsG1021" transform="translate(140,25)"><path id="SvgjsPath1022" d="M 0 0L 91 0L 91 41L 0 41Z" stroke="#323232" stroke-width="2" fill-opacity="1" fill="#66ffff"></path><g id="SvgjsG1023"><text id="SvgjsText1024" font-family="Arial" text-anchor="middle" font-size="13px" width="52" fill="#323232" font-weight="400" align="middle" anchor="middle" family="Arial" size="13px" weight="400" font-style="" y="10.55" transform="rotate(0)"><tspan id="SvgjsTspan1025" dy="16" x="45.5"><tspan id="SvgjsTspan1026" style="text-decoration:;">启动服务</tspan></tspan></text></g></g><g id="SvgjsG1027"><path id="SvgjsPath1028" d="M103 45.5C 117.80000000000001 45.5 125.19999999999999 45.5 140 45.5" stroke="#323232" stroke-width="2" fill="none" marker-end="url(#SvgjsMarker1029)"></path></g><g id="SvgjsG1031"><path id="SvgjsPath1032" d="M231 45.5C 244.60000000000002 45.5 251.39999999999998 45.5 265 45.5" stroke="#323232" stroke-width="2" fill="none" marker-end="url(#SvgjsMarker1033)"></path></g><g id="SvgjsG1035" transform="translate(388,25)"><path id="SvgjsPath1036" d="M 0 0L 96 0L 96 41L 0 41Z" stroke="#323232" stroke-width="2" fill-opacity="1" fill="#66ffff"></path><g id="SvgjsG1037"><text id="SvgjsText1038" font-family="Arial" text-anchor="middle" font-size="13px" width="52" fill="#323232" font-weight="400" align="middle" anchor="middle" family="Arial" size="13px" weight="400" font-style="" y="2.55" transform="rotate(0)"><tspan id="SvgjsTspan1039" dy="16" x="48"><tspan id="SvgjsTspan1040" style="text-decoration:;">加载配置</tspan></tspan><tspan id="SvgjsTspan1041" dy="16" x="48"><tspan id="SvgjsTspan1042" style="text-decoration:;">load</tspan></tspan></text></g></g><g id="SvgjsG1043" transform="translate(28.25,245.5)"><path id="SvgjsPath1044" d="M 9.333333333333334 0L 63.666666666666664 0C 76.11111111111111 0 76.11111111111111 28 63.666666666666664 28L 9.333333333333334 28C -3.111111111111111 28 -3.111111111111111 0 9.333333333333334 0Z" stroke="#323232" stroke-width="2" fill-opacity="1" fill="#b3ff66"></path><g id="SvgjsG1045"><text id="SvgjsText1046" font-family="Arial" text-anchor="middle" font-size="13px" width="27" fill="#323232" font-weight="400" align="middle" anchor="middle" family="Arial" size="13px" weight="400" font-style="" y="4.05" transform="rotate(0)"><tspan id="SvgjsTspan1047" dy="16" x="36.5"><tspan id="SvgjsTspan1048" style="text-decoration:;">Start</tspan></tspan></text></g></g><g id="SvgjsG1049" transform="translate(128.25,239)"><path id="SvgjsPath1050" d="M 0 0L 91 0L 91 41L 0 41Z" stroke="#323232" stroke-width="2" fill-opacity="1" fill="#66ffff"></path><g id="SvgjsG1051"><text id="SvgjsText1052" font-family="Arial" text-anchor="middle" font-size="13px" width="52" fill="#323232" font-weight="400" align="middle" anchor="middle" family="Arial" size="13px" weight="400" font-style="" y="2.55" transform="rotate(0)"><tspan id="SvgjsTspan1053" dy="16" x="45.5"><tspan id="SvgjsTspan1054" style="text-decoration:;">保存配置</tspan></tspan><tspan id="SvgjsTspan1055" dy="16" x="45.5"><tspan id="SvgjsTspan1056" style="text-decoration:;">save</tspan></tspan></text></g></g><g id="SvgjsG1057"><path id="SvgjsPath1058" d="M101.25 259.5C 112.05000000000001 259.5 117.44999999999999 259.5 128.25 259.5" stroke="#323232" stroke-width="2" fill="none" marker-end="url(#SvgjsMarker1059)"></path></g><g id="SvgjsG1061" transform="translate(248.25,239)"><path id="SvgjsPath1062" d="M 0 0L 121 0L 121 41L 0 41Z" stroke="#323232" stroke-width="2" fill-opacity="1" fill="#66ffff"></path><g id="SvgjsG1063"><text id="SvgjsText1064" font-family="Arial" text-anchor="middle" font-size="13px" width="69" fill="#323232" font-weight="400" align="middle" anchor="middle" family="Arial" size="13px" weight="400" font-style="" y="-5.45" transform="rotate(0)"><tspan id="SvgjsTspan1065" dy="16" x="60.5"><tspan id="SvgjsTspan1066" style="text-decoration:;">检查配置</tspan></tspan><tspan id="SvgjsTspan1067" dy="16" x="60.5"><tspan id="SvgjsTspan1068" style="text-decoration:;">&lt;/br&gt;validateCon</tspan></tspan><tspan id="SvgjsTspan1069" dy="16" x="60.5"><tspan id="SvgjsTspan1070" style="text-decoration:;">fig</tspan></tspan></text></g></g><g id="SvgjsG1071"><path id="SvgjsPath1072" d="M219.25 259.5C 230.85000000000002 259.5 236.64999999999998 259.5 248.25 259.5" stroke="#323232" stroke-width="2" fill="none" marker-end="url(#SvgjsMarker1073)"></path></g><g id="SvgjsG1075"><path id="SvgjsPath1076" d="M369.25 259.5C 382.55 259.5 389.2 259.5 402.5 259.5" stroke="#323232" stroke-width="2" fill="none" marker-end="url(#SvgjsMarker1077)"></path></g><g id="SvgjsG1079" transform="translate(535.75,245.5)"><path id="SvgjsPath1080" d="M 9.333333333333334 0L 58.666666666666664 0C 71.11111111111111 0 71.11111111111111 28 58.666666666666664 28L 9.333333333333334 28C -3.111111111111111 28 -3.111111111111111 0 9.333333333333334 0Z" stroke="#323232" stroke-width="2" fill-opacity="1" fill="#33ff33"></path><g id="SvgjsG1081"><text id="SvgjsText1082" font-family="Arial" text-anchor="middle" font-size="13px" width="23" fill="#323232" font-weight="400" align="middle" anchor="middle" family="Arial" size="13px" weight="400" font-style="" y="4.05" transform="rotate(0)"><tspan id="SvgjsTspan1083" dy="16" x="34"><tspan id="SvgjsTspan1084" style="text-decoration:;">End</tspan></tspan></text></g></g><g id="SvgjsG1085" transform="translate(25,326.5)"><path id="SvgjsPath1086" d="M 9.333333333333334 0L 63.666666666666664 0C 76.11111111111111 0 76.11111111111111 28 63.666666666666664 28L 9.333333333333334 28C -3.111111111111111 28 -3.111111111111111 0 9.333333333333334 0Z" stroke="#323232" stroke-width="2" fill-opacity="1" fill="#b3ff66"></path><g id="SvgjsG1087"><text id="SvgjsText1088" font-family="Arial" text-anchor="middle" font-size="13px" width="27" fill="#323232" font-weight="400" align="middle" anchor="middle" family="Arial" size="13px" weight="400" font-style="" y="4.05" transform="rotate(0)"><tspan id="SvgjsTspan1089" dy="16" x="36.5"><tspan id="SvgjsTspan1090" style="text-decoration:;">Start</tspan></tspan></text></g></g><g id="SvgjsG1091" transform="translate(134,320.25)"><path id="SvgjsPath1092" d="M 0 0L 121 0L 121 40.5L 0 40.5Z" stroke="#323232" stroke-width="2" fill-opacity="1" fill="#66ffff"></path><g id="SvgjsG1093"><text id="SvgjsText1094" font-family="Arial" text-anchor="middle" font-size="13px" width="100" fill="#323232" font-weight="400" align="middle" anchor="middle" family="Arial" size="13px" weight="400" font-style="" y="2.3" transform="rotate(0)"><tspan id="SvgjsTspan1095" dy="16" x="60.5"><tspan id="SvgjsTspan1096" style="text-decoration:;">检查配置</tspan></tspan><tspan id="SvgjsTspan1097" dy="16" x="60.5"><tspan id="SvgjsTspan1098" style="text-decoration:;">validateAclConfig</tspan></tspan></text></g></g><g id="SvgjsG1099"><path id="SvgjsPath1100" d="M98 340.5C 112.4 340.5 119.6 340.5 134 340.5" stroke="#323232" stroke-width="2" fill="none" marker-end="url(#SvgjsMarker1101)"></path></g><g id="SvgjsG1103" transform="translate(265,25)"><path id="SvgjsPath1104" d="M 0 0L 85 0L 85 41L 0 41Z" stroke="#323232" stroke-width="2" fill-opacity="1" fill="#66ffff"></path><g id="SvgjsG1105"><text id="SvgjsText1106" font-family="Arial" text-anchor="middle" font-size="13px" width="59" fill="#323232" font-weight="400" align="middle" anchor="middle" family="Arial" size="13px" weight="400" font-style="" y="10.55" transform="rotate(0)"><tspan id="SvgjsTspan1107" dy="16" x="42.5"><tspan id="SvgjsTspan1108" style="text-decoration:;">连接Redis</tspan></tspan></text></g></g><g id="SvgjsG1109"><path id="SvgjsPath1110" d="M350 45.5L369 45.5L369 45.5L388 45.5" stroke="#323232" stroke-width="2" fill="none" marker-end="url(#SvgjsMarker1111)"></path></g><g id="SvgjsG1113"><path id="SvgjsPath1114" d="M484 45.5L503 45.5L503 45.5L522 45.5" stroke="#323232" stroke-width="2" fill="none" marker-end="url(#SvgjsMarker1115)"></path></g><g id="SvgjsG1117" transform="translate(522,25)"><path id="SvgjsPath1118" d="M 0 0L 99 0L 99 41L 0 41Z" stroke="#323232" stroke-width="2" fill-opacity="1" fill="#66ffff"></path><g id="SvgjsG1119"><text id="SvgjsText1120" font-family="Arial" text-anchor="middle" font-size="13px" width="52" fill="#323232" font-weight="400" align="middle" anchor="middle" family="Arial" size="13px" weight="400" font-style="" y="-5.45" transform="rotate(0)"><tspan id="SvgjsTspan1121" dy="16" x="49.5"><tspan id="SvgjsTspan1122" style="text-decoration:;">启动完成</tspan></tspan><tspan id="SvgjsTspan1123" dy="16" x="49.5"><tspan id="SvgjsTspan1124" style="text-decoration:;">&lt;/br&gt;onRead</tspan></tspan><tspan id="SvgjsTspan1125" dy="16" x="49.5"><tspan id="SvgjsTspan1126" style="text-decoration:;">y</tspan></tspan></text></g></g><g id="SvgjsG1127" transform="translate(402.5,239.25)"><path id="SvgjsPath1128" d="M 0 0L 89 0L 89 40.5L 0 40.5Z" stroke="#323232" stroke-width="2" fill-opacity="1" fill="#66ffff"></path><g id="SvgjsG1129"><text id="SvgjsText1130" font-family="Arial" text-anchor="middle" font-size="13px" width="28" fill="#323232" font-weight="400" align="middle" anchor="middle" family="Arial" size="13px" weight="400" font-style="" y="2.3" transform="rotate(0)"><tspan id="SvgjsTspan1131" dy="16" x="44.5"><tspan id="SvgjsTspan1132" style="text-decoration:;">保存</tspan></tspan><tspan id="SvgjsTspan1133" dy="16" x="44.5"><tspan id="SvgjsTspan1134" style="text-decoration:;">&lt;/br&gt;redis</tspan></tspan></text></g></g><g id="SvgjsG1135"><path id="SvgjsPath1136" d="M491.5 259.5L513.625 259.5L513.625 259.5L535.75 259.5" stroke="#323232" stroke-width="2" fill="none" marker-end="url(#SvgjsMarker1137)"></path></g><g id="SvgjsG1139" transform="translate(286.25,320)"><path id="SvgjsPath1140" d="M 0 0L 129.75 0L 129.75 41L 0 41Z" stroke="#323232" stroke-width="2" fill-opacity="1" fill="#66ffff"></path><g id="SvgjsG1141"><text id="SvgjsText1142" font-family="Arial" text-anchor="middle" font-size="13px" width="75" fill="#323232" font-weight="400" align="middle" anchor="middle" family="Arial" size="13px" weight="400" font-style="" y="-5.45" transform="rotate(0)"><tspan id="SvgjsTspan1143" dy="16" x="65"><tspan id="SvgjsTspan1144" style="text-decoration:;">检查资源</tspan></tspan><tspan id="SvgjsTspan1145" dy="16" x="65"><tspan id="SvgjsTspan1146" style="text-decoration:;">&lt;/br&gt;validateReso</tspan></tspan><tspan id="SvgjsTspan1147" dy="16" x="65"><tspan id="SvgjsTspan1148" style="text-decoration:;">urces</tspan></tspan></text></g></g><g id="SvgjsG1149" transform="translate(724,320)"><path id="SvgjsPath1150" d="M 0 0L 106 0L 106 41L 0 41Z" stroke="#323232" stroke-width="2" fill-opacity="1" fill="#66ffff"></path><g id="SvgjsG1151"><text id="SvgjsText1152" font-family="Arial" text-anchor="middle" font-size="13px" width="54" fill="#323232" font-weight="400" align="middle" anchor="middle" family="Arial" size="13px" weight="400" font-style="" y="-5.45" transform="rotate(0)"><tspan id="SvgjsTspan1153" dy="16" x="53"><tspan id="SvgjsTspan1154" style="text-decoration:;">检查角色</tspan></tspan><tspan id="SvgjsTspan1155" dy="16" x="53"><tspan id="SvgjsTspan1156" style="text-decoration:;">&lt;/br&gt;validateR</tspan></tspan><tspan id="SvgjsTspan1157" dy="16" x="53"><tspan id="SvgjsTspan1158" style="text-decoration:;">oles</tspan></tspan></text></g></g><g id="SvgjsG1159"><path id="SvgjsPath1160" d="M416 340.5C 430.1 340.5 437.15 340.5 451.25 340.5" stroke="#323232" stroke-width="2" fill="none" marker-end="url(#SvgjsMarker1161)"></path></g><g id="SvgjsG1163" transform="translate(1126.75,326.5)"><path id="SvgjsPath1164" d="M 9.333333333333334 0L 58.666666666666664 0C 71.11111111111111 0 71.11111111111111 28 58.666666666666664 28L 9.333333333333334 28C -3.111111111111111 28 -3.111111111111111 0 9.333333333333334 0Z" stroke="#323232" stroke-width="2" fill-opacity="1" fill="#33ff33"></path><g id="SvgjsG1165"><text id="SvgjsText1166" font-family="Arial" text-anchor="middle" font-size="13px" width="23" fill="#323232" font-weight="400" align="middle" anchor="middle" family="Arial" size="13px" weight="400" font-style="" y="4.05" transform="rotate(0)"><tspan id="SvgjsTspan1167" dy="16" x="34"><tspan id="SvgjsTspan1168" style="text-decoration:;">End</tspan></tspan></text></g></g><g id="SvgjsG1169" transform="translate(451.25,305.5)"><path id="SvgjsPath1170" d="M 0 35L 45 0L 90 35L 45 70L 0 35Z" stroke="#323232" stroke-width="2" fill-opacity="1" fill="#ffffff"></path><g id="SvgjsG1171"><text id="SvgjsText1172" font-family="微软雅黑" text-anchor="middle" font-size="13px" width="58" fill="#323232" font-weight="400" align="middle" anchor="middle" family="微软雅黑" size="13px" weight="400" font-style="" y="25.05" transform="rotate(0)"><tspan id="SvgjsTspan1173" dy="16" x="45"><tspan id="SvgjsTspan1174" style="text-decoration:;">资源变化?</tspan></tspan></text></g></g><g id="SvgjsG1175" transform="translate(578.25,320)"><path id="SvgjsPath1176" d="M 0 0L 108 0L 108 41L 0 41Z" stroke="#323232" stroke-width="2" fill-opacity="1" fill="#66ffff"></path><g id="SvgjsG1177"><text id="SvgjsText1178" font-family="Arial" text-anchor="middle" font-size="13px" width="68" fill="#323232" font-weight="400" align="middle" anchor="middle" family="Arial" size="13px" weight="400" font-style="" y="-5.45" transform="rotate(0)"><tspan id="SvgjsTspan1179" dy="16" x="54"><tspan id="SvgjsTspan1180" style="text-decoration:;">重建</tspan></tspan><tspan id="SvgjsTspan1181" dy="16" x="54"><tspan id="SvgjsTspan1182" style="text-decoration:;">router&lt;/br&gt;影</tspan></tspan><tspan id="SvgjsTspan1183" dy="16" x="54"><tspan id="SvgjsTspan1184" style="text-decoration:;">响isAllowed</tspan></tspan></text></g></g><g id="SvgjsG1185" transform="translate(871.25,305.5)"><path id="SvgjsPath1186" d="M 0 35L 45 0L 90 35L 45 70L 0 35Z" stroke="#323232" stroke-width="2" fill-opacity="1" fill="#ffffff"></path><g id="SvgjsG1187"><text id="SvgjsText1188" font-family="微软雅黑" text-anchor="middle" font-size="13px" width="58" fill="#323232" font-weight="400" align="middle" anchor="middle" family="微软雅黑" size="13px" weight="400" font-style="" y="25.05" transform="rotate(0)"><tspan id="SvgjsTspan1189" dy="16" x="45"><tspan id="SvgjsTspan1190" style="text-decoration:;">角色变化?</tspan></tspan></text></g></g><g id="SvgjsG1191" transform="translate(1005.25,320)"><path id="SvgjsPath1192" d="M 0 0L 84 0L 84 41L 0 41Z" stroke="#323232" stroke-width="2" fill-opacity="1" fill="#66ffff"></path><g id="SvgjsG1193"><text id="SvgjsText1194" font-family="Arial" text-anchor="middle" font-size="13px" width="49" fill="#323232" font-weight="400" align="middle" anchor="middle" family="Arial" size="13px" weight="400" font-style="" y="2.55" transform="rotate(0)"><tspan id="SvgjsTspan1195" dy="16" x="42"><tspan id="SvgjsTspan1196" style="text-decoration:;">重置</tspan></tspan><tspan id="SvgjsTspan1197" dy="16" x="42"><tspan id="SvgjsTspan1198" style="text-decoration:;">backend</tspan></tspan></text></g></g><g id="SvgjsG1199"><path id="SvgjsPath1200" d="M541.25 340.5L559.75 340.5L559.75 340.5L578.25 340.5" stroke="#323232" stroke-width="2" fill="none" marker-end="url(#SvgjsMarker1201)"></path><rect id="SvgjsRect1203" width="13" height="16" x="553.25" y="332.5" fill="#ffffff"></rect><text id="SvgjsText1204" font-family="微软雅黑" text-anchor="middle" font-size="13px" width="13" fill="#323232" font-weight="400" align="top" anchor="middle" family="微软雅黑" size="13px" weight="400" font-style="" y="330.55" transform="rotate(0)"><tspan id="SvgjsTspan1205" dy="16" x="559.75"><tspan id="SvgjsTspan1206" style="text-decoration:;">是</tspan></tspan></text></g><g id="SvgjsG1207"><path id="SvgjsPath1208" d="M496.25 375.5L496.25 405.5L777 405.5L777 361" stroke="#323232" stroke-width="2" fill="none" marker-end="url(#SvgjsMarker1209)"></path><rect id="SvgjsRect1211" width="13" height="16" x="637.375" y="397.5" fill="#ffffff"></rect><text id="SvgjsText1212" font-family="微软雅黑" text-anchor="middle" font-size="13px" width="13" fill="#323232" font-weight="400" align="top" anchor="middle" family="微软雅黑" size="13px" weight="400" font-style="" y="395.55" transform="rotate(0)"><tspan id="SvgjsTspan1213" dy="16" x="643.875"><tspan id="SvgjsTspan1214" style="text-decoration:;">否</tspan></tspan></text></g><g id="SvgjsG1215"><path id="SvgjsPath1216" d="M686.25 340.5L705.125 340.5L705.125 340.5L724 340.5" stroke="#323232" stroke-width="2" fill="none" marker-end="url(#SvgjsMarker1217)"></path></g><g id="SvgjsG1219"><path id="SvgjsPath1220" d="M961.25 340.5L983.25 340.5L983.25 340.5L1005.25 340.5" stroke="#323232" stroke-width="2" fill="none" marker-end="url(#SvgjsMarker1221)"></path><rect id="SvgjsRect1223" width="13" height="16" x="976.75" y="332.5" fill="#ffffff"></rect><text id="SvgjsText1224" font-family="微软雅黑" text-anchor="middle" font-size="13px" width="13" fill="#323232" font-weight="400" align="top" anchor="middle" family="微软雅黑" size="13px" weight="400" font-style="" y="330.55" transform="rotate(0)"><tspan id="SvgjsTspan1225" dy="16" x="983.25"><tspan id="SvgjsTspan1226" style="text-decoration:;">是</tspan></tspan></text></g><g id="SvgjsG1227"><path id="SvgjsPath1228" d="M916.25 375.5L916.25 405.5L1047.25 405.5L1047.25 361" stroke="#323232" stroke-width="2" fill="none" marker-end="url(#SvgjsMarker1229)"></path><rect id="SvgjsRect1231" width="13" height="16" x="982.5" y="397.5" fill="#ffffff"></rect><text id="SvgjsText1232" font-family="微软雅黑" text-anchor="middle" font-size="13px" width="13" fill="#323232" font-weight="400" align="top" anchor="middle" family="微软雅黑" size="13px" weight="400" font-style="" y="395.55" transform="rotate(0)"><tspan id="SvgjsTspan1233" dy="16" x="989"><tspan id="SvgjsTspan1234" style="text-decoration:;">否</tspan></tspan></text></g><g id="SvgjsG1235"><path id="SvgjsPath1236" d="M830 340.5L850.625 340.5L850.625 340.5L871.25 340.5" stroke="#323232" stroke-width="2" fill="none" marker-end="url(#SvgjsMarker1237)"></path></g><g id="SvgjsG1239"><path id="SvgjsPath1240" d="M1089.25 340.5L1108 340.5L1108 340.5L1126.75 340.5" stroke="#323232" stroke-width="2" fill="none" marker-end="url(#SvgjsMarker1241)"></path></g><g id="SvgjsG1243"><path id="SvgjsPath1244" d="M255 340.5L270.625 340.5L270.625 340.5L286.25 340.5" stroke="#323232" stroke-width="2" fill="none" marker-end="url(#SvgjsMarker1245)"></path></g><g id="SvgjsG1247" transform="translate(30,128.5)"><path id="SvgjsPath1248" d="M 9.333333333333334 0L 63.666666666666664 0C 76.11111111111111 0 76.11111111111111 28 63.666666666666664 28L 9.333333333333334 28C -3.111111111111111 28 -3.111111111111111 0 9.333333333333334 0Z" stroke="#323232" stroke-width="2" fill-opacity="1" fill="#b3ff66"></path><g id="SvgjsG1249"><text id="SvgjsText1250" font-family="Arial" text-anchor="middle" font-size="13px" width="27" fill="#323232" font-weight="400" align="middle" anchor="middle" family="Arial" size="13px" weight="400" font-style="" y="4.05" transform="rotate(0)"><tspan id="SvgjsTspan1251" dy="16" x="36.5"><tspan id="SvgjsTspan1252" style="text-decoration:;">Start</tspan></tspan></text></g></g><g id="SvgjsG1253" transform="translate(393.375,122)"><path id="SvgjsPath1254" d="M 0 0L 117.25 0L 117.25 41L 0 41Z" stroke="#323232" stroke-width="2" fill-opacity="1" fill="#66ffff"></path><g id="SvgjsG1255"><text id="SvgjsText1256" font-family="Arial" text-anchor="middle" font-size="13px" width="95" fill="#323232" font-weight="400" align="middle" anchor="middle" family="Arial" size="13px" weight="400" font-style="" y="2.55" transform="rotate(0)"><tspan id="SvgjsTspan1257" dy="16" x="59"><tspan id="SvgjsTspan1258" style="text-decoration:;">采用默认配置</tspan></tspan><tspan id="SvgjsTspan1259" dy="16" x="59"><tspan id="SvgjsTspan1260" style="text-decoration:;">defaultAclConfig</tspan></tspan></text></g></g><g id="SvgjsG1261"><path id="SvgjsPath1262" d="M103 142.5C 117.39999999999998 142.5 124.60000000000002 142.5 139 142.5" stroke="#323232" stroke-width="2" fill="none" marker-end="url(#SvgjsMarker1263)"></path></g><g id="SvgjsG1265" transform="translate(139,122)"><path id="SvgjsPath1266" d="M 0 0L 96 0L 96 41L 0 41Z" stroke="#323232" stroke-width="2" fill-opacity="1" fill="#66ffff"></path><g id="SvgjsG1267"><text id="SvgjsText1268" font-family="Arial" text-anchor="middle" font-size="13px" width="52" fill="#323232" font-weight="400" align="middle" anchor="middle" family="Arial" size="13px" weight="400" font-style="" y="2.55" transform="rotate(0)"><tspan id="SvgjsTspan1269" dy="16" x="48"><tspan id="SvgjsTspan1270" style="text-decoration:;">加载配置</tspan></tspan><tspan id="SvgjsTspan1271" dy="16" x="48"><tspan id="SvgjsTspan1272" style="text-decoration:;">load</tspan></tspan></text></g></g><g id="SvgjsG1273" transform="translate(552,122)"><path id="SvgjsPath1274" d="M 0 0L 120.5 0L 120.5 41L 0 41Z" stroke="#323232" stroke-width="2" fill-opacity="1" fill="#66ffff"></path><g id="SvgjsG1275"><text id="SvgjsText1276" font-family="Arial" text-anchor="middle" font-size="13px" width="100" fill="#323232" font-weight="400" align="middle" anchor="middle" family="Arial" size="13px" weight="400" font-style="" y="2.55" transform="rotate(0)"><tspan id="SvgjsTspan1277" dy="16" x="60.5"><tspan id="SvgjsTspan1278" style="text-decoration:;">检查配置</tspan></tspan><tspan id="SvgjsTspan1279" dy="16" x="60.5"><tspan id="SvgjsTspan1280" style="text-decoration:;">validateAclConfig</tspan></tspan></text></g></g><g id="SvgjsG1281" transform="translate(271,107.5)"><path id="SvgjsPath1282" d="M 0 35L 45 0L 90 35L 45 70L 0 35Z" stroke="#323232" stroke-width="2" fill-opacity="1" fill="#ffffff"></path><g id="SvgjsG1283"><text id="SvgjsText1284" font-family="微软雅黑" text-anchor="middle" font-size="13px" width="52" fill="#323232" font-weight="400" align="middle" anchor="middle" family="微软雅黑" size="13px" weight="400" font-style="" y="25.05" transform="rotate(0)"><tspan id="SvgjsTspan1285" dy="16" x="45"><tspan id="SvgjsTspan1286" style="text-decoration:;">有配置？</tspan></tspan></text></g></g><g id="SvgjsG1287"><path id="SvgjsPath1288" d="M235 142.5L253 142.5L253 142.5L271 142.5" stroke="#323232" stroke-width="2" fill="none" marker-end="url(#SvgjsMarker1289)"></path></g><g id="SvgjsG1291"><path id="SvgjsPath1292" d="M361 142.5L377.1875 142.5L377.1875 142.5L393.375 142.5" stroke="#323232" stroke-width="2" fill="none" marker-end="url(#SvgjsMarker1293)"></path><rect id="SvgjsRect1295" width="13" height="16" x="370.6875" y="134.5" fill="#ffffff"></rect><text id="SvgjsText1296" font-family="微软雅黑" text-anchor="middle" font-size="13px" width="13" fill="#323232" font-weight="400" align="top" anchor="middle" family="微软雅黑" size="13px" weight="400" font-style="" y="132.55" transform="rotate(0)"><tspan id="SvgjsTspan1297" dy="16" x="377.1875"><tspan id="SvgjsTspan1298" style="text-decoration:;">否</tspan></tspan></text></g><g id="SvgjsG1299"><path id="SvgjsPath1300" d="M510.625 142.5L531.3125 142.5L531.3125 142.5L552 142.5" stroke="#323232" stroke-width="2" fill="none" marker-end="url(#SvgjsMarker1301)"></path></g><g id="SvgjsG1303"><path id="SvgjsPath1304" d="M672.5 142.5L690.75 142.5L690.75 142.5L709 142.5" stroke="#323232" stroke-width="2" fill="none" marker-end="url(#SvgjsMarker1305)"></path></g><g id="SvgjsG1307"><path id="SvgjsPath1308" d="M316 177.5L316 207.5L612.25 207.5L612.25 163" stroke="#323232" stroke-width="2" fill="none" marker-end="url(#SvgjsMarker1309)"></path><rect id="SvgjsRect1311" width="13" height="16" x="464.875" y="199.5" fill="#ffffff"></rect><text id="SvgjsText1312" font-family="微软雅黑" text-anchor="middle" font-size="13px" width="13" fill="#323232" font-weight="400" align="top" anchor="middle" family="微软雅黑" size="13px" weight="400" font-style="" y="197.55" transform="rotate(0)"><tspan id="SvgjsTspan1313" dy="16" x="471.375"><tspan id="SvgjsTspan1314" style="text-decoration:;">是</tspan></tspan></text></g><g id="SvgjsG1315" transform="translate(709,128.5)"><path id="SvgjsPath1316" d="M 9.333333333333334 0L 58.666666666666664 0C 71.11111111111111 0 71.11111111111111 28 58.666666666666664 28L 9.333333333333334 28C -3.111111111111111 28 -3.111111111111111 0 9.333333333333334 0Z" stroke="#323232" stroke-width="2" fill-opacity="1" fill="#33ff33"></path><g id="SvgjsG1317"><text id="SvgjsText1318" font-family="Arial" text-anchor="middle" font-size="13px" width="23" fill="#323232" font-weight="400" align="middle" anchor="middle" family="Arial" size="13px" weight="400" font-style="" y="4.05" transform="rotate(0)"><tspan id="SvgjsTspan1319" dy="16" x="34"><tspan id="SvgjsTspan1320" style="text-decoration:;">End</tspan></tspan></text></g></g><g id="SvgjsG1321"><path id="SvgjsPath1322" d="M621 45.5L641.25 45.5L641.25 45.5L661.5 45.5" stroke="#323232" stroke-width="2" fill="none" marker-end="url(#SvgjsMarker1323)"></path></g></svg>