<svg id="SvgjsSvg1006" width="799" height="361" xmlns="http://www.w3.org/2000/svg" version="1.1" xmlns:xlink="http://www.w3.org/1999/xlink" xmlns:svgjs="http://svgjs.com/svgjs"><defs id="SvgjsDefs1007"><marker id="SvgjsMarker1025" markerWidth="16" markerHeight="12" refX="16" refY="6" viewBox="0 0 16 12" orient="auto" markerUnits="userSpaceOnUse"><path id="SvgjsPath1026" d="M0,2 L14,6 L0,11 L0,2" fill="#323232" stroke="#323232" stroke-width="2"></path></marker><marker id="SvgjsMarker1035" markerWidth="16" markerHeight="12" refX="16" refY="6" viewBox="0 0 16 12" orient="auto" markerUnits="userSpaceOnUse"><path id="SvgjsPath1036" d="M0,2 L14,6 L0,11 L0,2" fill="#323232" stroke="#323232" stroke-width="2"></path></marker><marker id="SvgjsMarker1045" markerWidth="16" markerHeight="12" refX="0" refY="6" viewBox="0 0 16 12" orient="auto" markerUnits="userSpaceOnUse"><path id="SvgjsPath1046" d="M15,1.5 L2,6 L15,10.5" fill="#323232" stroke="#323232" stroke-width="2"></path></marker><marker id="SvgjsMarker1047" markerWidth="16" markerHeight="12" refX="16" refY="6" viewBox="0 0 16 12" orient="auto" markerUnits="userSpaceOnUse"><path id="SvgjsPath1048" d="M0,2 L14,6 L0,11 L0,2" fill="#323232" stroke="#323232" stroke-width="2"></path></marker><marker id="SvgjsMarker1075" markerWidth="16" markerHeight="12" refX="0" refY="6" viewBox="0 0 16 12" orient="auto" markerUnits="userSpaceOnUse"><path id="SvgjsPath1076" d="M15,1.5 L2,6 L15,10.5" fill="#323232" stroke="#323232" stroke-width="2"></path></marker><marker id="SvgjsMarker1077" markerWidth="16" markerHeight="12" refX="16" refY="6" viewBox="0 0 16 12" orient="auto" markerUnits="userSpaceOnUse"><path id="SvgjsPath1078" d="M0,2 L14,6 L0,11 L0,2" fill="#323232" stroke="#323232" stroke-width="2"></path></marker><marker id="SvgjsMarker1081" markerWidth="16" markerHeight="12" refX="0" refY="6" viewBox="0 0 16 12" orient="auto" markerUnits="userSpaceOnUse"><path id="SvgjsPath1082" d="M15,1.5 L2,6 L15,10.5" fill="#323232" stroke="#323232" stroke-width="2"></path></marker><marker id="SvgjsMarker1083" markerWidth="16" markerHeight="12" refX="16" refY="6" viewBox="0 0 16 12" orient="auto" markerUnits="userSpaceOnUse"><path id="SvgjsPath1084" d="M0,2 L14,6 L0,11 L0,2" fill="#323232" stroke="#323232" stroke-width="2"></path></marker><marker id="SvgjsMarker1103" markerWidth="16" markerHeight="12" refX="16" refY="6" viewBox="0 0 16 12" orient="auto" markerUnits="userSpaceOnUse"><path id="SvgjsPath1104" d="M0,2 L14,6 L0,11 L0,2" fill="#323232" stroke="#323232" stroke-width="2"></path></marker><marker id="SvgjsMarker1107" markerWidth="16" markerHeight="12" refX="16" refY="6" viewBox="0 0 16 12" orient="auto" markerUnits="userSpaceOnUse"><path id="SvgjsPath1108" d="M0,2 L14,6 L0,11 L0,2" fill="#323232" stroke="#323232" stroke-width="2"></path></marker><marker id="SvgjsMarker1125" markerWidth="16" markerHeight="12" refX="16" refY="6" viewBox="0 0 16 12" orient="auto" markerUnits="userSpaceOnUse"><path id="SvgjsPath1126" d="M0,2 L14,6 L0,11 L0,2" fill="#323232" stroke="#323232" stroke-width="2"></path></marker><marker id="SvgjsMarker1129" markerWidth="16" markerHeight="12" refX="16" refY="6" viewBox="0 0 16 12" orient="auto" markerUnits="userSpaceOnUse"><path id="SvgjsPath1130" d="M0,2 L14,6 L0,11 L0,2" fill="#323232" stroke="#323232" stroke-width="2"></path></marker><marker id="SvgjsMarker1139" markerWidth="16" markerHeight="12" refX="16" refY="6" viewBox="0 0 16 12" orient="auto" markerUnits="userSpaceOnUse"><path id="SvgjsPath1140" d="M0,2 L14,6 L0,11 L0,2" fill="#323232" stroke="#323232" stroke-width="2"></path></marker><marker id="SvgjsMarker1149" markerWidth="16" markerHeight="12" refX="16" refY="6" viewBox="0 0 16 12" orient="auto" markerUnits="userSpaceOnUse"><path id="SvgjsPath1150" d="M0,2 L14,6 L0,11 L0,2" fill="#323232" stroke="#323232" stroke-width="2"></path></marker><marker id="SvgjsMarker1153" markerWidth="16" markerHeight="12" refX="16" refY="6" viewBox="0 0 16 12" orient="auto" markerUnits="userSpaceOnUse"><path id="SvgjsPath1154" d="M0,2 L14,6 L0,11 L0,2" fill="#323232" stroke="#323232" stroke-width="2"></path></marker></defs><rect id="SvgjsRect1008" width="799" height="361" fill="#ffffff"></rect><g id="SvgjsG1009" transform="translate(482,70)"><path id="SvgjsPath1010" d="M 0 72C 0 -24 292 -24 292 72C 292 168 0 168 0 72Z" stroke="#323232" stroke-width="1" fill-opacity="1" fill="#92d050"></path><g id="SvgjsG1011"><text id="SvgjsText1012" font-family="微软雅黑" text-anchor="middle" font-size="13px" width="44" fill="#323232" font-weight="700" align="bottom" anchor="middle" family="微软雅黑" size="13px" weight="700" font-style="" y="110.05" transform="rotate(0)"><tspan id="SvgjsTspan1013" dy="16" x="146"><tspan id="SvgjsTspan1014" style="text-decoration:;">Allows</tspan></tspan><tspan id="SvgjsTspan1015" dy="16" x="146"><tspan id="SvgjsTspan1016" style="text-decoration:;"> </tspan></tspan></text></g></g><g id="SvgjsG1017" transform="translate(25,92)"><path id="SvgjsPath1018" d="M 0 50C 0 -16.666666666666668 100.13839673914856 -16.666666666666668 100.13839673914856 50C 100.13839673914856 116.66666666666667 0 116.66666666666667 0 50Z" stroke="#323232" stroke-width="1" fill-opacity="1" fill="#92d050"></path><g id="SvgjsG1019"><text id="SvgjsText1020" font-family="微软雅黑" text-anchor="middle" font-size="13px" width="36" fill="#323232" font-weight="700" align="middle" anchor="middle" family="微软雅黑" size="13px" weight="700" font-style="" y="40.05" transform="rotate(0)"><tspan id="SvgjsTspan1021" dy="16" x="50.5"><tspan id="SvgjsTspan1022" style="text-decoration:;">Users</tspan></tspan></text></g></g><g id="SvgjsG1023"><path id="SvgjsPath1024" d="M75.06919836957428 192L136 256" stroke="#323232" stroke-width="2" fill="none" marker-end="url(#SvgjsMarker1025)"></path><rect id="SvgjsRect1027" width="49" height="30" x="81.03459918478714" y="209" fill="#ffffff"></rect><text id="SvgjsText1028" font-family="微软雅黑" text-anchor="middle" font-size="12px" width="49" fill="#323232" font-weight="400" align="top" anchor="middle" family="微软雅黑" size="12px" weight="400" font-style="" y="207.2" transform="rotate(0)"><tspan id="SvgjsTspan1029" dy="15" x="105.53459918478714"><tspan id="SvgjsTspan1030" style="text-decoration:;">User</tspan></tspan><tspan id="SvgjsTspan1031" dy="15" x="105.53459918478714"><tspan id="SvgjsTspan1032" style="text-decoration:;">Sessions</tspan></tspan></text></g><g id="SvgjsG1033"><path id="SvgjsPath1034" d="M236.13839673914856 256L293.6383967391486 192" stroke="#323232" stroke-width="2" fill="none" marker-end="url(#SvgjsMarker1035)"></path><rect id="SvgjsRect1037" width="47" height="32" x="241.38839673914856" y="208" fill="#ffffff"></rect><text id="SvgjsText1038" font-family="微软雅黑" text-anchor="middle" font-size="13px" width="47" fill="#323232" font-weight="400" align="top" anchor="middle" family="微软雅黑" size="13px" weight="400" font-style="" y="206.05" transform="rotate(0)"><tspan id="SvgjsTspan1039" dy="16" x="264.88839673914856"><tspan id="SvgjsTspan1040" style="text-decoration:;">Session</tspan></tspan><tspan id="SvgjsTspan1041" dy="16" x="264.88839673914856"><tspan id="SvgjsTspan1042" style="text-decoration:;">Roles</tspan></tspan></text></g><g id="SvgjsG1043"><path id="SvgjsPath1044" d="M125.13839673914856 142L243.56919836957434 142" stroke="#323232" stroke-width="2" fill="none" marker-start="url(#SvgjsMarker1045)" marker-end="url(#SvgjsMarker1047)"></path><rect id="SvgjsRect1049" width="57" height="32" x="155.85379755436145" y="126" fill="#ffffff"></rect><text id="SvgjsText1050" font-family="微软雅黑" text-anchor="middle" font-size="13px" width="57" fill="#323232" font-weight="400" align="top" anchor="middle" family="微软雅黑" size="13px" weight="400" font-style="" y="124.05" transform="rotate(0)"><tspan id="SvgjsTspan1051" dy="16" x="184.35379755436145"><tspan id="SvgjsTspan1052" style="text-decoration:;">User</tspan></tspan><tspan id="SvgjsTspan1053" dy="16" x="184.35379755436145"><tspan id="SvgjsTspan1054" style="text-decoration:;">Assigned</tspan></tspan></text></g><g id="SvgjsG1055" transform="translate(243.56919836957434,92)"><path id="SvgjsPath1056" d="M 0 50C 0 -16.666666666666668 100.13839673914856 -16.666666666666668 100.13839673914856 50C 100.13839673914856 116.66666666666667 0 116.66666666666667 0 50Z" stroke="#323232" stroke-width="1" fill-opacity="1" fill="#92d050"></path><g id="SvgjsG1057"><text id="SvgjsText1058" font-family="微软雅黑" text-anchor="middle" font-size="13px" width="35" fill="#323232" font-weight="700" align="middle" anchor="middle" family="微软雅黑" size="13px" weight="700" font-style="" y="40.05" transform="rotate(0)"><tspan id="SvgjsTspan1059" dy="16" x="50.5"><tspan id="SvgjsTspan1060" style="text-decoration:;">Roles</tspan></tspan></text></g></g><g id="SvgjsG1061" transform="translate(136,206)"><path id="SvgjsPath1062" d="M 0 50C 0 -16.666666666666668 100.13839673914856 -16.666666666666668 100.13839673914856 50C 100.13839673914856 116.66666666666667 0 116.66666666666667 0 50Z" stroke="#323232" stroke-width="1" fill-opacity="1" fill="#92d050"></path><g id="SvgjsG1063"><text id="SvgjsText1064" font-family="微软雅黑" text-anchor="middle" font-size="13px" width="55" fill="#323232" font-weight="700" align="middle" anchor="middle" family="微软雅黑" size="13px" weight="700" font-style="" y="40.05" transform="rotate(0)"><tspan id="SvgjsTspan1065" dy="16" x="50.5"><tspan id="SvgjsTspan1066" style="text-decoration:;">Sessions</tspan></tspan></text></g></g><g id="SvgjsG1067" transform="translate(656,92)"><path id="SvgjsPath1068" d="M 0 50C 0 -16.666666666666668 100.13839673914856 -16.666666666666668 100.13839673914856 50C 100.13839673914856 116.66666666666667 0 116.66666666666667 0 50Z" stroke="#323232" stroke-width="1" fill-opacity="1" fill="#92d050"></path><g id="SvgjsG1069"><text id="SvgjsText1070" font-family="微软雅黑" text-anchor="middle" font-size="13px" width="78" fill="#323232" font-weight="700" align="middle" anchor="middle" family="微软雅黑" size="13px" weight="700" font-style="" y="40.05" transform="rotate(0)"><tspan id="SvgjsTspan1071" dy="16" x="50.5"><tspan id="SvgjsTspan1072" style="text-decoration:;">Permissions</tspan></tspan></text></g></g><g id="SvgjsG1073"><path id="SvgjsPath1074" d="M597.1383967391486 142L656 142" stroke="#323232" stroke-width="2" fill="none" marker-start="url(#SvgjsMarker1075)" marker-end="url(#SvgjsMarker1077)"></path></g><g id="SvgjsG1079"><path id="SvgjsPath1080" d="M343.7075951087229 142L482 142" stroke="#323232" stroke-width="2" fill="none" marker-start="url(#SvgjsMarker1081)" marker-end="url(#SvgjsMarker1083)"></path><rect id="SvgjsRect1085" width="74" height="48" x="375.85379755436145" y="118" fill="#ffffff"></rect><text id="SvgjsText1086" font-family="微软雅黑" text-anchor="middle" font-size="13px" width="74" fill="#323232" font-weight="400" align="top" anchor="middle" family="微软雅黑" size="13px" weight="400" font-style="" y="116.05" transform="rotate(0)"><tspan id="SvgjsTspan1087" dy="16" x="412.85379755436145"><tspan id="SvgjsTspan1088" style="text-decoration:;">Resources</tspan></tspan><tspan id="SvgjsTspan1089" dy="16" x="412.85379755436145"><tspan id="SvgjsTspan1090" style="text-decoration:;">Permissions</tspan></tspan><tspan id="SvgjsTspan1091" dy="16" x="412.85379755436145"><tspan id="SvgjsTspan1092" style="text-decoration:;">Allowed</tspan></tspan></text></g><g id="SvgjsG1093" transform="translate(233.13839673914856,25)"><path id="SvgjsPath1094" d="M 0 4Q 0 0 4 0L 117 0Q 121 0 121 4L 121 32Q 121 36 117 36L 4 36Q 0 36 0 32Z" stroke="#323232" stroke-width="2" fill-opacity="1" fill="#ffff00"></path><g id="SvgjsG1095"><text id="SvgjsText1096" font-family="微软雅黑" text-anchor="middle" font-size="12px" width="68" fill="#323232" font-weight="400" align="middle" anchor="middle" family="微软雅黑" size="12px" weight="400" font-style="" y="1.2000000000000002" transform="rotate(0)"><tspan id="SvgjsTspan1097" dy="15" x="60.5"><tspan id="SvgjsTspan1098" style="text-decoration:;">Role</tspan></tspan><tspan id="SvgjsTspan1099" dy="15" x="60.5"><tspan id="SvgjsTspan1100" style="text-decoration:;">Hierarchical</tspan></tspan></text></g></g><g id="SvgjsG1101"><path id="SvgjsPath1102" d="M245.56919836957434 61L271.2596714165371 97.62523114814667" stroke="#323232" stroke-width="2" fill="none" marker-end="url(#SvgjsMarker1103)"></path></g><g id="SvgjsG1105"><path id="SvgjsPath1106" d="M340.56919836957434 61L319.06919836957434 99.33012701892221" stroke="#323232" stroke-width="2" fill="none" marker-end="url(#SvgjsMarker1107)"></path></g><g id="SvgjsG1109" transform="translate(497,92)"><path id="SvgjsPath1110" d="M 0 50C 0 -16.666666666666668 100.13839673914856 -16.666666666666668 100.13839673914856 50C 100.13839673914856 116.66666666666667 0 116.66666666666667 0 50Z" stroke="#323232" stroke-width="1" fill-opacity="1" fill="#92d050"></path><g id="SvgjsG1111"><text id="SvgjsText1112" font-family="微软雅黑" text-anchor="middle" font-size="13px" width="66" fill="#323232" font-weight="700" align="middle" anchor="middle" family="微软雅黑" size="13px" weight="700" font-style="" y="40.05" transform="rotate(0)"><tspan id="SvgjsTspan1113" dy="16" x="50.5"><tspan id="SvgjsTspan1114" style="text-decoration:;">Resources</tspan></tspan></text></g></g><g id="SvgjsG1115" transform="translate(486.5691983695742,25)"><path id="SvgjsPath1116" d="M 0 4Q 0 0 4 0L 117 0Q 121 0 121 4L 121 32Q 121 36 117 36L 4 36Q 0 36 0 32Z" stroke="#323232" stroke-width="2" fill-opacity="1" fill="#ffff00"></path><g id="SvgjsG1117"><text id="SvgjsText1118" font-family="微软雅黑" text-anchor="middle" font-size="12px" width="68" fill="#323232" font-weight="400" align="middle" anchor="middle" family="微软雅黑" size="12px" weight="400" font-style="" y="1.2000000000000002" transform="rotate(0)"><tspan id="SvgjsTspan1119" dy="15" x="60.5"><tspan id="SvgjsTspan1120" style="text-decoration:;">Resources </tspan></tspan><tspan id="SvgjsTspan1121" dy="15" x="60.5"><tspan id="SvgjsTspan1122" style="text-decoration:;">Hierarchical</tspan></tspan></text></g></g><g id="SvgjsG1123"><path id="SvgjsPath1124" d="M499 61L524.6904730469628 97.62523114814667" stroke="#323232" stroke-width="2" fill="none" marker-end="url(#SvgjsMarker1125)"></path></g><g id="SvgjsG1127"><path id="SvgjsPath1128" d="M594 61L572.5 99.33012701892221" stroke="#323232" stroke-width="2" fill="none" marker-end="url(#SvgjsMarker1129)"></path></g><g id="SvgjsG1131" transform="translate(309,254)"><path id="SvgjsPath1132" d="M 0 12C 0 -4 55 -4 55 12C 55 28 0 28 0 12Z" stroke="#323232" stroke-width="2" fill-opacity="1" fill="#4bacc6"></path><g id="SvgjsG1133"><text id="SvgjsText1134" font-family="微软雅黑" text-anchor="middle" font-size="13px" width="27" fill="#323232" font-weight="400" align="middle" anchor="middle" family="微软雅黑" size="13px" weight="400" font-style="" y="2.05" transform="rotate(0)"><tspan id="SvgjsTspan1135" dy="16" x="27.5"><tspan id="SvgjsTspan1136" style="text-decoration:;">DSD</tspan></tspan></text></g></g><g id="SvgjsG1137"><path id="SvgjsPath1138" d="M309 266L258 241" stroke-dasharray="3,3" stroke="#323232" stroke-width="2" fill="none" marker-end="url(#SvgjsMarker1139)"></path></g><g id="SvgjsG1141" transform="translate(111,31)"><path id="SvgjsPath1142" d="M 0 12C 0 -4 55 -4 55 12C 55 28 0 28 0 12Z" stroke="#323232" stroke-width="2" fill-opacity="1" fill="#ffc000"></path><g id="SvgjsG1143"><text id="SvgjsText1144" font-family="微软雅黑" text-anchor="middle" font-size="13px" width="25" fill="#323232" font-weight="400" align="middle" anchor="middle" family="微软雅黑" size="13px" weight="400" font-style="" y="2.05" transform="rotate(0)"><tspan id="SvgjsTspan1145" dy="16" x="27.5"><tspan id="SvgjsTspan1146" style="text-decoration:;">SSD</tspan></tspan></text></g></g><g id="SvgjsG1147"><path id="SvgjsPath1148" d="M166 43L233.13839673914856 43" stroke-dasharray="3,3" stroke="#323232" stroke-width="2" fill="none" marker-end="url(#SvgjsMarker1149)"></path></g><g id="SvgjsG1151"><path id="SvgjsPath1152" d="M138.5 55L182 123" stroke-dasharray="3,3" stroke="#323232" stroke-width="2" fill="none" marker-end="url(#SvgjsMarker1153)"></path></g><g id="SvgjsG1155" transform="translate(598,259)"><path id="SvgjsPath1156" d="M 0 0L 103 0L 103 20L 0 20Z" stroke="#323232" stroke-width="2" fill-opacity="1" fill="#92d050"></path><g id="SvgjsG1157"><text id="SvgjsText1158" font-family="微软雅黑" text-anchor="middle" font-size="13px" width="29" fill="#323232" font-weight="400" align="middle" anchor="middle" family="微软雅黑" size="13px" weight="400" font-style="" y="0.050000000000000044" transform="rotate(0)"><tspan id="SvgjsTspan1159" dy="16" x="51.5"><tspan id="SvgjsTspan1160" style="text-decoration:;">Core</tspan></tspan></text></g></g><g id="SvgjsG1161" transform="translate(598,279)"><path id="SvgjsPath1162" d="M 0 0L 103 0L 103 19L 0 19Z" stroke="#323232" stroke-width="2" fill-opacity="1" fill="#ffff00"></path><g id="SvgjsG1163"><text id="SvgjsText1164" font-family="微软雅黑" text-anchor="middle" font-size="13px" width="73" fill="#323232" font-weight="400" align="middle" anchor="middle" family="微软雅黑" size="13px" weight="400" font-style="" y="-0.44999999999999996" transform="rotate(0)"><tspan id="SvgjsTspan1165" dy="16" x="51.5"><tspan id="SvgjsTspan1166" style="text-decoration:;">Hierarchical</tspan></tspan></text></g></g><g id="SvgjsG1167" transform="translate(598,298)"><path id="SvgjsPath1168" d="M 0 0L 103 0L 103 19L 0 19Z" stroke="#323232" stroke-width="2" fill-opacity="1" fill="#ffc000"></path><g id="SvgjsG1169"><text id="SvgjsText1170" font-family="微软雅黑" text-anchor="middle" font-size="13px" width="25" fill="#323232" font-weight="400" align="middle" anchor="middle" family="微软雅黑" size="13px" weight="400" font-style="" y="-0.44999999999999996" transform="rotate(0)"><tspan id="SvgjsTspan1171" dy="16" x="51.5"><tspan id="SvgjsTspan1172" style="text-decoration:;">SSD</tspan></tspan></text></g></g><g id="SvgjsG1173" transform="translate(598,317)"><path id="SvgjsPath1174" d="M 0 0L 103 0L 103 19L 0 19Z" stroke="#323232" stroke-width="2" fill-opacity="1" fill="#4bacc6"></path><g id="SvgjsG1175"><text id="SvgjsText1176" font-family="微软雅黑" text-anchor="middle" font-size="13px" width="27" fill="#323232" font-weight="400" align="middle" anchor="middle" family="微软雅黑" size="13px" weight="400" font-style="" y="-0.44999999999999996" transform="rotate(0)"><tspan id="SvgjsTspan1177" dy="16" x="51.5"><tspan id="SvgjsTspan1178" style="text-decoration:;">DSD</tspan></tspan></text></g></g><g id="SvgjsG1179" transform="translate(569.5,224)"><path id="SvgjsPath1180" d="M 0 0L 160 0L 160 40L 0 40Z" stroke="none" fill="none"></path><g id="SvgjsG1181"><text id="SvgjsText1182" font-family="微软雅黑" text-anchor="middle" font-size="12px" width="114" fill="#323232" font-weight="700" align="middle" anchor="middle" family="微软雅黑" size="12px" weight="700" font-style="" y="10.7" transform="rotate(0)"><tspan id="SvgjsTspan1183" dy="15" x="80"><tspan id="SvgjsTspan1184" style="text-decoration:;">RBAC Components</tspan></tspan></text></g></g></svg>